<?xml version="1.0" encoding="UTF-8" standalone="no"?>
<!-- Created with Inkscape (http://www.inkscape.org/) -->

<svg
   width="177.62819mm"
   height="179.87212mm"
   viewBox="0 0 177.62819 179.87212"
   version="1.1"
   id="svg70169"
   inkscape:version="1.2.2 (732a01da63, 2022-12-09)"
   sodipodi:docname="splash.svg"
   xmlns:inkscape="http://www.inkscape.org/namespaces/inkscape"
   xmlns:sodipodi="http://sodipodi.sourceforge.net/DTD/sodipodi-0.dtd"
   xmlns="http://www.w3.org/2000/svg"
   xmlns:svg="http://www.w3.org/2000/svg">
  <sodipodi:namedview
     id="namedview70171"
     pagecolor="#ffffff"
     bordercolor="#000000"
     borderopacity="0.25"
     inkscape:showpageshadow="2"
     inkscape:pageopacity="0.0"
     inkscape:pagecheckerboard="0"
     inkscape:deskcolor="#d1d1d1"
     inkscape:document-units="mm"
     showgrid="false"
     inkscape:zoom="0.55244701"
     inkscape:cx="-398.22824"
     inkscape:cy="443.48145"
     inkscape:window-width="1920"
     inkscape:window-height="1017"
     inkscape:window-x="-8"
     inkscape:window-y="-8"
     inkscape:window-maximized="1"
     inkscape:current-layer="layer1" />
  <defs
     id="defs70166">
    <clipPath
       clipPathUnits="userSpaceOnUse"
       id="clipPath79290">
      <path
         id="path79292"
         style="opacity:1;fill:none;stroke:#000000;stroke-width:0.289044;stroke-opacity:1"
         d="M 136.5335,167.93921 A 60.345153,62.426022 0 0 1 76.188359,230.36523 60.345153,62.426022 0 0 1 15.843205,167.93921 60.345153,62.426022 0 0 1 76.188359,105.51319 60.345153,62.426022 0 0 1 136.5335,167.93921 Z" />
    </clipPath>
  </defs>
  <g
     inkscape:label="Слой 1"
     inkscape:groupmode="layer"
     id="layer1"
     transform="translate(-17.212214,-2.4381999)">
    <g
       id="g79167"
       transform="matrix(1.4789251,0,0,1.4789251,-7.0824328,-158.3826)"
       clip-path="url(#clipPath79290)"
       inkscape:export-filename="splash.svg"
       inkscape:export-xdpi="138.72009"
       inkscape:export-ydpi="138.72009">
      <g
         id="g78943" />
      <g
         id="g75358-5-2"
         transform="matrix(-1.5883366,-0.35834151,-0.36438501,1.7889631,223.0724,-96.496333)"
         style="fill:#1597ff;fill-opacity:1" />
      <path
         id="path79142"
         style="opacity:1;fill:#ffce31;stroke-width:0.316"
         d="m 106.95205,161.86659 a 31.369902,31.369902 0 0 1 -31.369904,31.3699 31.369902,31.369902 0 0 1 -31.369902,-31.3699 31.369902,31.369902 0 0 1 31.369902,-31.3699 31.369902,31.369902 0 0 1 31.369904,31.3699 z" />
      <path
         id="path79139"
         style="fill:#1597ff;fill-opacity:1;stroke-width:0.316"
         d="m 56.236287,148.90136 a 8.1418066,7.1839471 0 0 1 5.670962,4.30649 8.3812714,8.3812714 0 0 1 2.896426,1.66138 6.2260876,5.4936066 0 0 1 2.366302,-0.41426 6.2260876,5.4936066 0 0 1 6.226033,5.49339 6.2260876,5.4936066 0 0 1 -0.0087,0.26488 14.966556,9.0996656 0 0 1 9.108481,8.37011 14.966556,9.0996656 0 0 1 -14.966536,9.09967 14.966556,9.0996656 0 0 1 -6.182858,-0.81298 14.966556,9.0996656 0 0 1 -8.304793,1.53131 14.966556,9.0996656 0 0 1 -11.409015,-3.21081 8.3812714,8.3812714 0 0 1 -5.712701,2.25301 8.3812714,8.3812714 0 0 1 -8.381357,-8.38132 8.3812714,8.3812714 0 0 1 8.381308,-8.38138 8.3812714,8.3812714 0 0 1 0.561943,0.021 8.3812714,8.3812714 0 0 1 8.298125,-7.20476 8.3812714,8.3812714 0 0 1 1.828161,0.2027 8.1418066,7.1839471 0 0 1 7.750472,-4.99199 8.1418066,7.1839471 0 0 1 1.877757,0.19356 z"
         transform="matrix(-1.5883366,-0.35834151,-0.36438501,1.7889631,223.0724,-96.496333)" />
      <path
         id="path79115"
         style="fill:#75d6ff;stroke-width:0.316"
         d="m 54.358771,148.7077 a 8.1418066,7.1839471 0 0 0 -7.750948,4.99194 8.3812714,8.3812714 0 0 0 -1.827795,-0.20257 8.3812714,8.3812714 0 0 0 -8.296135,7.2037 8.3812714,8.3812714 0 0 0 -0.564306,-0.0196 8.3812714,8.3812714 0 0 0 -8.380884,8.38088 8.3812714,8.3812714 0 0 0 8.380884,8.3814 8.3812714,8.3812714 0 0 0 5.718514,-2.25464 14.966556,9.0996656 0 0 0 11.403438,3.21272 14.966556,9.0996656 0 0 0 8.313188,-1.53324 14.966556,9.0996656 0 0 0 6.1743,0.81494 14.966556,9.0996656 0 0 0 14.966528,-9.0997 14.966556,9.0996656 0 0 0 -9.110555,-8.37262 6.2260876,5.4936066 0 0 0 0.01085,-0.26251 6.2260876,5.4936066 0 0 0 -6.225976,-5.49372 6.2260876,5.4936066 0 0 0 -2.364197,0.41444 8.3812714,8.3812714 0 0 0 -2.895947,-1.66243 8.1418066,7.1839471 0 0 0 -7.550961,-4.49895 z"
         transform="translate(8.1418065,13.271044)" />
      <path
         id="path79091"
         style="opacity:1;fill:#9dd6ff;fill-opacity:1;stroke-width:0.316"
         d="m 53.560307,148.74248 a 8.1418066,7.1839471 0 0 1 0.798257,-0.0344 8.1418066,7.1839471 0 0 1 7.551878,4.5061 8.3812714,8.3812714 79.721977 0 1 2.883976,1.65643 6.2260876,5.4936066 0 0 1 2.375536,-0.41562 6.2260876,5.4936066 0 0 1 6.225677,5.4937 6.2260876,5.4936066 0 0 1 -0.01433,0.26922 14.966556,9.0996656 0 0 1 9.114692,8.36512 14.966556,9.0996656 0 0 1 -14.966832,9.09961 14.966556,9.0996656 0 0 1 -6.195225,-0.81664 14.966556,9.0996656 0 0 1 -8.292094,1.53562 14.966556,9.0996656 0 0 1 -11.406051,-3.22191 8.3812714,8.3812714 79.721977 0 1 -5.715795,2.26403 8.3812714,8.3812714 79.721977 0 1 -8.38135,-8.38167 8.3812714,8.3812714 79.721977 0 1 8.380982,-8.38135 8.3812714,8.3812714 79.721977 0 1 0.571505,0.028 8.3812714,8.3812714 79.721977 0 1 8.288388,-7.21201 8.3812714,8.3812714 79.721977 0 1 1.828521,0.20952 8.1418066,7.1839471 0 0 1 6.952265,-4.96378 z"
         transform="matrix(-0.57369557,0.02751987,0.02704843,0.56386775,120.61254,89.5037)" />
      <path
         id="path79067"
         style="opacity:1;fill:#ffce31;fill-opacity:1;stroke:none;stroke-width:0.316;stroke-opacity:1"
         d="m 75.905961,108.74168 -0.898136,3.41788 c -0.169787,5.44936 -0.08526,10.89778 0.07338,16.34681 l 0.95033,-3.71915 c -0.337539,-5.34316 -0.346706,-10.69835 -0.125574,-16.04554 z m -29.720666,7.73907 1.232999,3.31194 c 2.997133,4.55428 6.201065,8.96131 9.466606,13.32632 l -1.362708,-3.58893 c -3.350914,-4.17548 -6.440553,-8.54906 -9.336897,-13.04933 z m 63.433335,1.67586 -3.24269,2.04897 c -4.07857,4.07501 -7.93668,8.31198 -11.731071,12.59717 l 3.505729,-2.24638 c 3.563342,-4.31851 7.418802,-8.43611 11.468032,-12.39976 z m -78.896474,13.69942 2.295467,2.68718 c 4.37922,3.24758 8.902154,6.2859 13.468428,9.26352 l -2.512508,-2.90215 c -4.581344,-2.77029 -8.985377,-5.81707 -13.251387,-9.04855 z m 93.582914,6.32468 c 0,0 -3.77082,0.7178 -3.77083,0.71779 -4.69442,2.57403 -9.5388,4.85627 -14.47405,6.92619 l 3.47576,-0.6382 c 5.00596,-2.15978 9.9029,-4.54878 14.76912,-7.00578 z m -100.973678,12.60078 3.094902,1.70584 c 5.242729,1.49605 10.546667,2.74529 15.869316,3.92276 l -3.373955,-1.83038 c -5.263689,-0.97813 -10.459157,-2.27735 -15.590263,-3.79822 z m 102.222188,4.24677 c -5.26917,0.94815 -10.58787,1.57217 -15.92513,1.96577 l 3.49849,0.49972 c 5.43288,-0.45634 10.83567,-1.16512 16.23054,-1.94769 z m -16.89251,14.12266 2.91041,2.00504 c 5.06811,2.00964 10.22133,3.77968 15.40061,5.48029 l -3.17551,-2.15698 c -5.14043,-1.49639 -10.18096,-3.3051 -15.13551,-5.32835 z" />
      <path
         id="rect70353"
         style="opacity:1;fill:#0b4f6c;stroke-width:0.446909"
         d="M 16.427233,187.52367 H 144.39292 v 43.36657 H 16.427233 Z" />
    </g>
  </g>
</svg>
