<?xml version="1.0" encoding="UTF-8" standalone="no"?>
<!-- Uploaded to: SVG Repo, www.svgrepo.com, Generator: SVG Repo Mixer Tools -->

<svg
   height="800px"
   width="800px"
   version="1.1"
   id="Layer_1"
   viewBox="0 0 505 505"
   xml:space="preserve"
   sodipodi:docname="light-bulb-idea-svgrepo-com.svg"
   inkscape:version="1.2.2 (732a01da63, 2022-12-09)"
   xmlns:inkscape="http://www.inkscape.org/namespaces/inkscape"
   xmlns:sodipodi="http://sodipodi.sourceforge.net/DTD/sodipodi-0.dtd"
   xmlns="http://www.w3.org/2000/svg"
   xmlns:svg="http://www.w3.org/2000/svg"><defs
   id="defs31822" /><sodipodi:namedview
   id="namedview31820"
   pagecolor="#ffffff"
   bordercolor="#000000"
   borderopacity="0.25"
   inkscape:showpageshadow="2"
   inkscape:pageopacity="0.0"
   inkscape:pagecheckerboard="0"
   inkscape:deskcolor="#d1d1d1"
   showgrid="false"
   inkscape:zoom="0.548125"
   inkscape:cx="138.6545"
   inkscape:cy="414.13911"
   inkscape:window-width="1920"
   inkscape:window-height="1017"
   inkscape:window-x="-8"
   inkscape:window-y="-8"
   inkscape:window-maximized="1"
   inkscape:current-layer="Layer_1" />
<circle
   style="fill:#75d6ff;fill-opacity:1"
   cx="252.5"
   cy="252.5"
   r="252.5"
   id="circle31801" />
<path
   style="fill:#ffce31;fill-opacity:1"
   d="M249.2,87.3c-54.8,1.7-99.9,48-100.2,102.8c-0.1,26.7,9.9,51,26.3,69.4c18,20.1,29.2,45.4,29.2,72.3  v2.7h95.8v-2.7c0-26.2,9.8-51.5,27.7-70.7c17.3-18.5,27.8-43.2,27.8-70.5C355.9,132.4,307.8,85.5,249.2,87.3z"
   id="path31803" />
<g
   id="g31811"
   style="fill:#0b4f6c;fill-opacity:1">
	<path
   style="fill:#0b4f6c;fill-opacity:1"
   d="M295.1,343.8h-85.2c-3.8,0-6.8,3.1-6.8,6.8v0.7c0,3.8,3.1,6.8,6.8,6.8h85.2c3.8,0,6.8-3.1,6.8-6.8   v-0.7C302,346.9,298.9,343.8,295.1,343.8z"
   id="path31805" />
	<path
   style="fill:#0b4f6c;fill-opacity:1"
   d="M293.6,366.6h-82.2c-3.6,0-6.6,3.1-6.6,6.8v0.7c0,3.8,3,6.8,6.6,6.8h82.2c3.6,0,6.6-3.1,6.6-6.8   v-0.7C300.2,369.6,297.2,366.6,293.6,366.6z"
   id="path31807" />
	<path
   style="fill:#0b4f6c;fill-opacity:1"
   d="M290.2,389.3h-75.3c-3.3,0-6.1,3.1-6.1,6.8v0.7c0,3.8,2.7,6.8,6.1,6.8h75.3c3.3,0,6.1-3.1,6.1-6.8   v-0.7C296.2,392.4,293.5,389.3,290.2,389.3z"
   id="path31809" />
</g>
<g
   id="g31817"
   style="fill:#0b4f6c;fill-opacity:1">
	<path
   style="fill:#0b4f6c;fill-opacity:1"
   d="M218.5,403.7l18.9,15.1c2,1.6,4.4,2.4,7,2.4h16.4c2.5,0,5-0.9,7-2.4l18.9-15.1H218.5z"
   id="path31813" />
	<path
   style="fill:#0b4f6c;fill-opacity:1"
   d="M226.7,189.4c-5.7,0-10.4-1.8-13.9-5.5c-3.5-3.6-5.3-8.5-5.3-14.7c0-6.7,1.9-12,5.6-16   c3.7-3.9,8.7-5.9,14.9-5.9c6,0,10.6,1.8,14,5.3c3.4,3.6,5,8.6,5,15c0,6.6-1.9,11.9-5.6,15.8C237.9,187.5,232.9,189.4,226.7,189.4z    M285.7,148.5l-52.6,80.7h-13.7l52.5-80.7H285.7z M227.8,157.3c-5.5,0-8.2,3.8-8.2,11.4c0,7.2,2.6,10.8,7.8,10.8   c5.3,0,8-3.8,8-11.3C235.4,160.9,232.9,157.3,227.8,157.3z M277,230.3c-5.7,0-10.4-1.8-13.9-5.5c-3.5-3.6-5.3-8.5-5.3-14.7   c0-6.7,1.9-12,5.6-16c3.7-3.9,8.7-5.9,14.9-5.9c6,0,10.7,1.8,14,5.3s5,8.5,5,15c0,6.6-1.9,11.9-5.6,15.9   C288.1,228.4,283.2,230.3,277,230.3z M277.9,198.2c-5.4,0-8.2,3.8-8.2,11.4c0,7.2,2.6,10.8,7.9,10.8s8-3.8,8-11.3   c0-3.5-0.7-6.2-2.1-8.1C282.1,199.2,280.2,198.2,277.9,198.2z"
   id="path31815" />
</g>
</svg>
