<?xml version="1.0" encoding="UTF-8" standalone="no"?>
<!-- Uploaded to: SVG Repo, www.svgrepo.com, Generator: SVG Repo Mixer Tools -->

<svg
   height="800px"
   width="800px"
   version="1.1"
   id="Layer_1"
   viewBox="0 0 473.931 473.931"
   xml:space="preserve"
   sodipodi:docname="temperature.svg"
   inkscape:version="1.2.2 (732a01da63, 2022-12-09)"
   xmlns:inkscape="http://www.inkscape.org/namespaces/inkscape"
   xmlns:sodipodi="http://sodipodi.sourceforge.net/DTD/sodipodi-0.dtd"
   xmlns="http://www.w3.org/2000/svg"
   xmlns:svg="http://www.w3.org/2000/svg"><defs
   id="defs15955" /><sodipodi:namedview
   id="namedview15953"
   pagecolor="#ffffff"
   bordercolor="#000000"
   borderopacity="0.25"
   inkscape:showpageshadow="2"
   inkscape:pageopacity="0.0"
   inkscape:pagecheckerboard="0"
   inkscape:deskcolor="#d1d1d1"
   showgrid="false"
   inkscape:zoom="0.77516581"
   inkscape:cx="122.55442"
   inkscape:cy="442.48598"
   inkscape:window-width="1920"
   inkscape:window-height="1017"
   inkscape:window-x="-8"
   inkscape:window-y="-8"
   inkscape:window-maximized="1"
   inkscape:current-layer="Layer_1" />
<circle
   style="fill:#75d6ff;fill-opacity:1"
   cx="236.966"
   cy="236.966"
   r="236.966"
   id="circle15940" />
<circle
   style="fill:#ffce31;fill-opacity:1"
   cx="164.117"
   cy="251.559"
   r="102.345"
   id="circle15942" />
<path
   style="fill:#FFFFFF;"
   d="M317.073,327.359c0.217-1.557,1.231-2.892,1.231-4.516c0-24.643-26.66-44.639-59.558-44.639  c-4.303,0-8.131,1.197-12.194,1.856c-9.856-13.104-27.842-22.327-49.358-22.327c-27.85,0-49.986,15.15-55.217,34.903  c-27.012,5.366-47.393,22.997-47.393,44.961c0,20.793,18.166,37.923,43.034,44.272c8.419,18.956,31.521,32.849,59.576,32.849  c25.455,0,47.03-11.401,57.219-27.581c6.541,2.178,13.691,3.48,21.302,3.48c29.167,0,52.83-17.743,52.83-39.663  C328.549,341.948,323.831,334.023,317.073,327.359z"
   id="path15944" />
<g
   id="g15950"
   style="fill:#0b4f6c;fill-opacity:1">
	<path
   style="fill:#0b4f6c;fill-opacity:1"
   d="M374.64,171.537l37.492,11.334c-2.518,10.511-6.484,19.292-11.899,26.346   c-5.414,7.053-12.135,12.374-20.168,15.962c-8.026,3.588-18.241,5.384-30.645,5.384c-15.046,0-27.341-2.185-36.875-6.556   c-9.538-4.378-17.773-12.067-24.696-23.079c-6.93-11.012-10.391-25.103-10.391-42.286c0-22.903,6.092-40.508,18.275-52.8   c12.183-12.307,29.418-18.454,51.707-18.454c17.444,0,31.146,3.528,41.129,10.574c9.976,7.053,17.392,17.882,22.237,32.493   l-37.773,8.404c-1.325-4.224-2.709-7.308-4.153-9.261c-2.398-3.274-5.321-5.789-8.789-7.551c-3.461-1.77-7.33-2.645-11.611-2.645   c-9.699,0-17.13,3.903-22.293,11.693c-3.903,5.789-5.856,14.873-5.856,27.266c0,15.341,2.327,25.856,6.99,31.551   c4.658,5.691,11.207,8.535,19.644,8.535c8.183,0,14.368-2.294,18.559-6.892C369.708,186.957,372.75,180.282,374.64,171.537z"
   id="path15946" />
	<path
   style="fill:#0b4f6c;fill-opacity:1"
   d="M248.165,59.187c-15.921,0-28.838,12.913-28.838,28.838c0,15.932,12.913,28.845,28.838,28.845   s28.838-12.913,28.838-28.845C277.003,72.1,264.09,59.187,248.165,59.187z M248.165,106.831c-10.383,0-18.802-8.411-18.802-18.802   c0-10.383,8.419-18.802,18.802-18.802c10.387,0,18.81,8.419,18.81,18.802C266.975,98.42,258.552,106.831,248.165,106.831z"
   id="path15948" />
</g>
</svg>
